<?xml version="1.0" encoding="UTF-8" ?>
<svg version="1.1" width="16" height="16" xmlns="http://www.w3.org/2000/svg" shape-rendering="crispEdges">
<rect x="0" y="0" width="16" height="1" fill="#000000" />
<rect x="0" y="1" width="7" height="3" fill="#000000" />
<rect x="7" y="1" width="2" height="12" fill="#FFFFFF" />
<rect x="9" y="1" width="7" height="3" fill="#000000" />
<rect x="0" y="4" width="4" height="9" fill="#000000" />
<rect x="4" y="4" width="3" height="2" fill="#FFFFFF" />
<rect x="9" y="4" width="3" height="2" fill="#FFFFFF" />
<rect x="12" y="4" width="4" height="9" fill="#000000" />
<rect x="4" y="6" width="3" height="7" fill="#000000" />
<rect x="9" y="6" width="3" height="7" fill="#000000" />
<rect x="0" y="13" width="1" height="3" fill="#000000" />
<rect x="1" y="13" width="5" height="2" fill="#FFFFFF" />
<rect x="6" y="13" width="4" height="1" fill="#000000" />
<rect x="10" y="13" width="5" height="2" fill="#FFFFFF" />
<rect x="15" y="13" width="1" height="3" fill="#000000" />
<rect x="6" y="14" width="4" height="1" fill="#FFFFFF" />
<rect x="1" y="15" width="14" height="1" fill="#000000" />
</svg>