<?xml version="1.0" encoding="UTF-8" ?>
<svg version="1.1" width="16" height="16" xmlns="http://www.w3.org/2000/svg" shape-rendering="crispEdges">
<rect x="0" y="0" width="16" height="1" fill="#000000" />
<rect x="0" y="1" width="1" height="15" fill="#000000" />
<rect x="1" y="1" width="14" height="1" fill="#FFFFFF" />
<rect x="15" y="1" width="1" height="15" fill="#000000" />
<rect x="1" y="2" width="1" height="13" fill="#FFFFFF" />
<rect x="2" y="2" width="12" height="2" fill="#000000" />
<rect x="14" y="2" width="1" height="13" fill="#FFFFFF" />
<rect x="2" y="4" width="1" height="10" fill="#000000" />
<rect x="3" y="4" width="1" height="1" fill="#FFFFFF" />
<rect x="4" y="4" width="3" height="1" fill="#000000" />
<rect x="7" y="4" width="1" height="1" fill="#FFFFFF" />
<rect x="8" y="4" width="2" height="1" fill="#000000" />
<rect x="10" y="4" width="3" height="11" fill="#FFFFFF" />
<rect x="13" y="4" width="1" height="10" fill="#000000" />
<rect x="3" y="5" width="3" height="1" fill="#000000" />
<rect x="6" y="5" width="1" height="1" fill="#FFFFFF" />
<rect x="7" y="5" width="1" height="2" fill="#000000" />
<rect x="8" y="5" width="1" height="1" fill="#FFFFFF" />
<rect x="9" y="5" width="1" height="9" fill="#000000" />
<rect x="3" y="6" width="1" height="1" fill="#000000" />
<rect x="4" y="6" width="1" height="1" fill="#FFFFFF" />
<rect x="5" y="6" width="2" height="1" fill="#000000" />
<rect x="8" y="6" width="1" height="1" fill="#000000" />
<rect x="3" y="7" width="1" height="1" fill="#FFFFFF" />
<rect x="4" y="7" width="2" height="3" fill="#000000" />
<rect x="6" y="7" width="3" height="8" fill="#FFFFFF" />
<rect x="3" y="8" width="1" height="2" fill="#000000" />
<rect x="3" y="10" width="2" height="5" fill="#FFFFFF" />
<rect x="5" y="10" width="1" height="4" fill="#000000" />
<rect x="2" y="14" width="1" height="1" fill="#FFFFFF" />
<rect x="5" y="14" width="1" height="1" fill="#FFFFFF" />
<rect x="9" y="14" width="1" height="1" fill="#FFFFFF" />
<rect x="13" y="14" width="1" height="1" fill="#FFFFFF" />
<rect x="1" y="15" width="14" height="1" fill="#000000" />
</svg>